<svg xmlns="http://www.w3.org/2000/svg" viewBox="0 0 1920 1080" preserveAspectRatio="xMidYMid slice">
  <defs>
    <linearGradient id="deep" x1="0%" y1="0%" x2="100%" y2="100%">
      <stop offset="0%" stop-color="#030810"/>
      <stop offset="40%" stop-color="#0a0818"/>
      <stop offset="100%" stop-color="#03060c"/>
    </linearGradient>
    <radialGradient id="gL" cx="10%" cy="42%" r="58%">
      <stop offset="0%" stop-color="#39ff84" stop-opacity="0.2"/>
      <stop offset="100%" stop-color="#000" stop-opacity="0"/>
    </radialGradient>
    <radialGradient id="gC" cx="50%" cy="28%" r="48%">
      <stop offset="0%" stop-color="#b794f6" stop-opacity="0.14"/>
      <stop offset="100%" stop-color="#000" stop-opacity="0"/>
    </radialGradient>
    <radialGradient id="gR" cx="90%" cy="44%" r="54%">
      <stop offset="0%" stop-color="#5eb8ff" stop-opacity="0.18"/>
      <stop offset="100%" stop-color="#000" stop-opacity="0"/>
    </radialGradient>
    <radialGradient id="floor" cx="50%" cy="98%" r="72%">
      <stop offset="0%" stop-color="#1a6c42" stop-opacity="0.62"/>
      <stop offset="50%" stop-color="#0d2818" stop-opacity="0.22"/>
      <stop offset="100%" stop-color="#000" stop-opacity="0"/>
    </radialGradient>
    <pattern id="grid" width="48" height="48" patternUnits="userSpaceOnUse">
      <path d="M48 0H0V48" fill="none" stroke="#2a6040" stroke-width="0.9" opacity="0.5"/>
    </pattern>
    <filter id="blur" x="-6%" y="-6%" width="112%" height="112%">
      <feGaussianBlur stdDeviation="2"/>
    </filter>
  </defs>
  <rect width="100%" height="100%" fill="url(#deep)"/>
  <rect width="100%" height="100%" fill="url(#gL)"/>
  <rect width="100%" height="100%" fill="url(#gC)"/>
  <rect width="100%" height="100%" fill="url(#gR)"/>
  <rect width="100%" height="100%" fill="url(#grid)"/>
  <rect width="100%" height="100%" fill="url(#floor)"/>
  <g filter="url(#blur)" opacity="0.85"><path d="M-80 720 Q480 560 960 620 T2000 580" fill="none" stroke="#39ff84" stroke-width="1.2" opacity="0.28"/><path d="M0 840 Q560 680 1180 760 T1920 700" fill="none" stroke="#5eb8ff" stroke-width="0.9" opacity="0.22"/><path d="M200 920 Q700 780 1280 820 T1880 880" fill="none" stroke="#c4a5f5" stroke-width="0.85" opacity="0.2"/></g>
  <g><circle cx="294" cy="308" r="0.60" fill="#b8e0c8" opacity="0.087"/><circle cx="902" cy="887" r="0.40" fill="#b8e0c8" opacity="0.068"/><circle cx="1642" cy="80" r="1.20" fill="#b8e0c8" opacity="0.179"/><circle cx="109" cy="525" r="0.40" fill="#b8e0c8" opacity="0.131"/><circle cx="687" cy="604" r="0.40" fill="#b8e0c8" opacity="0.098"/><circle cx="968" cy="458" r="0.40" fill="#b8e0c8" opacity="0.214"/><circle cx="625" cy="496" r="1.20" fill="#b8e0c8" opacity="0.195"/><circle cx="1062" cy="633" r="0.90" fill="#b8e0c8" opacity="0.211"/><circle cx="618" cy="757" r="0.90" fill="#b8e0c8" opacity="0.046"/><circle cx="1013" cy="532" r="0.60" fill="#b8e0c8" opacity="0.130"/><circle cx="549" cy="264" r="0.60" fill="#b8e0c8" opacity="0.065"/><circle cx="1427" cy="273" r="0.40" fill="#b8e0c8" opacity="0.204"/><circle cx="540" cy="894" r="0.60" fill="#b8e0c8" opacity="0.087"/><circle cx="1729" cy="539" r="0.40" fill="#b8e0c8" opacity="0.172"/><circle cx="1535" cy="704" r="0.40" fill="#b8e0c8" opacity="0.144"/><circle cx="1591" cy="181" r="0.40" fill="#b8e0c8" opacity="0.151"/><circle cx="202" cy="662" r="0.40" fill="#b8e0c8" opacity="0.077"/><circle cx="1385" cy="410" r="0.60" fill="#b8e0c8" opacity="0.090"/><circle cx="803" cy="788" r="0.90" fill="#b8e0c8" opacity="0.125"/><circle cx="1754" cy="790" r="1.20" fill="#b8e0c8" opacity="0.207"/><circle cx="1045" cy="895" r="0.40" fill="#b8e0c8" opacity="0.207"/><circle cx="1900" cy="986" r="0.60" fill="#b8e0c8" opacity="0.067"/><circle cx="378" cy="87" r="1.20" fill="#b8e0c8" opacity="0.177"/><circle cx="1493" cy="361" r="0.40" fill="#b8e0c8" opacity="0.194"/><circle cx="454" cy="775" r="0.60" fill="#b8e0c8" opacity="0.102"/><circle cx="1733" cy="88" r="0.40" fill="#b8e0c8" opacity="0.209"/><circle cx="5" cy="191" r="1.20" fill="#b8e0c8" opacity="0.057"/><circle cx="1100" cy="861" r="0.40" fill="#b8e0c8" opacity="0.195"/><circle cx="1240" cy="374" r="0.90" fill="#b8e0c8" opacity="0.149"/><circle cx="1161" cy="183" r="0.40" fill="#b8e0c8" opacity="0.128"/><circle cx="1262" cy="786" r="0.40" fill="#b8e0c8" opacity="0.218"/><circle cx="1615" cy="641" r="0.60" fill="#b8e0c8" opacity="0.213"/><circle cx="1712" cy="302" r="1.20" fill="#b8e0c8" opacity="0.216"/><circle cx="687" cy="349" r="0.90" fill="#b8e0c8" opacity="0.108"/><circle cx="1771" cy="703" r="0.90" fill="#b8e0c8" opacity="0.047"/><circle cx="1166" cy="426" r="0.60" fill="#b8e0c8" opacity="0.114"/><circle cx="121" cy="152" r="1.20" fill="#b8e0c8" opacity="0.191"/><circle cx="182" cy="377" r="0.60" fill="#b8e0c8" opacity="0.158"/><circle cx="1774" cy="51" r="1.20" fill="#b8e0c8" opacity="0.217"/><circle cx="33" cy="127" r="0.60" fill="#b8e0c8" opacity="0.179"/><circle cx="619" cy="145" r="1.20" fill="#b8e0c8" opacity="0.186"/><circle cx="1499" cy="960" r="0.90" fill="#b8e0c8" opacity="0.208"/><circle cx="1825" cy="918" r="0.60" fill="#b8e0c8" opacity="0.187"/><circle cx="378" cy="180" r="0.60" fill="#b8e0c8" opacity="0.205"/><circle cx="631" cy="153" r="0.90" fill="#b8e0c8" opacity="0.146"/><circle cx="1279" cy="631" r="0.40" fill="#b8e0c8" opacity="0.087"/><circle cx="1797" cy="873" r="0.90" fill="#b8e0c8" opacity="0.144"/><circle cx="62" cy="759" r="0.90" fill="#b8e0c8" opacity="0.160"/><circle cx="1507" cy="473" r="0.60" fill="#b8e0c8" opacity="0.114"/><circle cx="1159" cy="99" r="1.20" fill="#b8e0c8" opacity="0.189"/><circle cx="1277" cy="208" r="0.90" fill="#b8e0c8" opacity="0.128"/><circle cx="718" cy="463" r="0.90" fill="#b8e0c8" opacity="0.047"/><circle cx="1659" cy="674" r="0.90" fill="#b8e0c8" opacity="0.040"/><circle cx="961" cy="890" r="0.90" fill="#b8e0c8" opacity="0.171"/><circle cx="1150" cy="127" r="0.40" fill="#b8e0c8" opacity="0.138"/><circle cx="1240" cy="580" r="0.60" fill="#b8e0c8" opacity="0.197"/><circle cx="367" cy="24" r="1.20" fill="#b8e0c8" opacity="0.178"/><circle cx="213" cy="519" r="0.60" fill="#b8e0c8" opacity="0.156"/><circle cx="1585" cy="862" r="0.40" fill="#b8e0c8" opacity="0.158"/><circle cx="787" cy="277" r="0.40" fill="#b8e0c8" opacity="0.067"/><circle cx="480" cy="754" r="1.20" fill="#b8e0c8" opacity="0.163"/><circle cx="1110" cy="96" r="0.90" fill="#b8e0c8" opacity="0.056"/><circle cx="1783" cy="366" r="0.90" fill="#b8e0c8" opacity="0.097"/><circle cx="630" cy="585" r="1.20" fill="#b8e0c8" opacity="0.161"/><circle cx="1235" cy="371" r="0.90" fill="#b8e0c8" opacity="0.135"/><circle cx="1899" cy="251" r="1.20" fill="#b8e0c8" opacity="0.079"/><circle cx="1091" cy="187" r="0.90" fill="#b8e0c8" opacity="0.086"/><circle cx="1009" cy="923" r="0.90" fill="#b8e0c8" opacity="0.064"/><circle cx="233" cy="99" r="0.60" fill="#b8e0c8" opacity="0.100"/><circle cx="873" cy="516" r="0.40" fill="#b8e0c8" opacity="0.205"/><circle cx="1130" cy="148" r="0.60" fill="#b8e0c8" opacity="0.171"/><circle cx="862" cy="143" r="0.60" fill="#b8e0c8" opacity="0.180"/><circle cx="1692" cy="1057" r="0.90" fill="#b8e0c8" opacity="0.206"/><circle cx="1665" cy="315" r="0.40" fill="#b8e0c8" opacity="0.219"/><circle cx="337" cy="638" r="1.20" fill="#b8e0c8" opacity="0.070"/><circle cx="879" cy="60" r="0.90" fill="#b8e0c8" opacity="0.044"/><circle cx="1297" cy="914" r="1.20" fill="#b8e0c8" opacity="0.046"/><circle cx="1447" cy="927" r="0.40" fill="#b8e0c8" opacity="0.130"/><circle cx="1920" cy="383" r="0.60" fill="#b8e0c8" opacity="0.067"/><circle cx="913" cy="980" r="0.90" fill="#b8e0c8" opacity="0.075"/><circle cx="1662" cy="236" r="0.90" fill="#b8e0c8" opacity="0.045"/><circle cx="704" cy="363" r="0.40" fill="#b8e0c8" opacity="0.108"/><circle cx="923" cy="743" r="0.90" fill="#b8e0c8" opacity="0.052"/><circle cx="1384" cy="753" r="0.40" fill="#b8e0c8" opacity="0.121"/><circle cx="1585" cy="102" r="0.40" fill="#b8e0c8" opacity="0.155"/><circle cx="487" cy="293" r="1.20" fill="#b8e0c8" opacity="0.163"/><circle cx="728" cy="985" r="1.20" fill="#b8e0c8" opacity="0.140"/><circle cx="617" cy="477" r="1.20" fill="#b8e0c8" opacity="0.147"/><circle cx="271" cy="807" r="1.20" fill="#b8e0c8" opacity="0.056"/><circle cx="1592" cy="955" r="1.20" fill="#b8e0c8" opacity="0.145"/><circle cx="1491" cy="937" r="0.90" fill="#b8e0c8" opacity="0.171"/><circle cx="1494" cy="1076" r="0.40" fill="#b8e0c8" opacity="0.157"/><circle cx="657" cy="823" r="0.90" fill="#b8e0c8" opacity="0.105"/><circle cx="1687" cy="875" r="0.40" fill="#b8e0c8" opacity="0.191"/><circle cx="1289" cy="318" r="1.20" fill="#b8e0c8" opacity="0.205"/><circle cx="1088" cy="891" r="0.40" fill="#b8e0c8" opacity="0.195"/><circle cx="458" cy="173" r="0.60" fill="#b8e0c8" opacity="0.104"/><circle cx="1010" cy="825" r="0.40" fill="#b8e0c8" opacity="0.163"/><circle cx="1586" cy="473" r="0.40" fill="#b8e0c8" opacity="0.160"/><circle cx="1665" cy="145" r="1.20" fill="#b8e0c8" opacity="0.182"/><circle cx="1117" cy="304" r="0.40" fill="#b8e0c8" opacity="0.138"/><circle cx="1187" cy="931" r="1.20" fill="#b8e0c8" opacity="0.071"/><circle cx="155" cy="950" r="0.40" fill="#b8e0c8" opacity="0.056"/><circle cx="1067" cy="668" r="0.90" fill="#b8e0c8" opacity="0.153"/><circle cx="919" cy="306" r="1.20" fill="#b8e0c8" opacity="0.055"/><circle cx="705" cy="1077" r="0.40" fill="#b8e0c8" opacity="0.116"/><circle cx="552" cy="979" r="1.20" fill="#b8e0c8" opacity="0.047"/><circle cx="658" cy="373" r="1.20" fill="#b8e0c8" opacity="0.088"/><circle cx="232" cy="1026" r="0.90" fill="#b8e0c8" opacity="0.041"/><circle cx="995" cy="775" r="0.60" fill="#b8e0c8" opacity="0.157"/><circle cx="122" cy="859" r="1.20" fill="#b8e0c8" opacity="0.193"/><circle cx="1520" cy="105" r="0.60" fill="#b8e0c8" opacity="0.192"/><circle cx="1876" cy="288" r="0.60" fill="#b8e0c8" opacity="0.083"/><circle cx="282" cy="673" r="0.60" fill="#b8e0c8" opacity="0.192"/><circle cx="1732" cy="255" r="0.40" fill="#b8e0c8" opacity="0.095"/><circle cx="1654" cy="469" r="0.60" fill="#b8e0c8" opacity="0.147"/><circle cx="452" cy="910" r="0.90" fill="#b8e0c8" opacity="0.196"/><circle cx="1352" cy="541" r="0.40" fill="#b8e0c8" opacity="0.152"/><circle cx="1106" cy="227" r="0.40" fill="#b8e0c8" opacity="0.046"/><circle cx="1664" cy="586" r="1.20" fill="#b8e0c8" opacity="0.138"/><circle cx="387" cy="81" r="0.60" fill="#b8e0c8" opacity="0.125"/><circle cx="1699" cy="642" r="0.40" fill="#b8e0c8" opacity="0.084"/><circle cx="317" cy="815" r="0.60" fill="#b8e0c8" opacity="0.156"/><circle cx="1729" cy="13" r="0.40" fill="#b8e0c8" opacity="0.054"/><circle cx="1782" cy="402" r="1.20" fill="#b8e0c8" opacity="0.133"/><circle cx="435" cy="30" r="0.40" fill="#b8e0c8" opacity="0.095"/><circle cx="1242" cy="377" r="1.20" fill="#b8e0c8" opacity="0.178"/><circle cx="1131" cy="728" r="0.90" fill="#b8e0c8" opacity="0.195"/><circle cx="709" cy="967" r="0.90" fill="#b8e0c8" opacity="0.158"/><circle cx="54" cy="692" r="1.20" fill="#b8e0c8" opacity="0.155"/><circle cx="1634" cy="1038" r="0.60" fill="#b8e0c8" opacity="0.065"/><circle cx="478" cy="219" r="0.90" fill="#b8e0c8" opacity="0.184"/><circle cx="123" cy="727" r="1.20" fill="#b8e0c8" opacity="0.079"/><circle cx="214" cy="819" r="0.90" fill="#b8e0c8" opacity="0.083"/><circle cx="883" cy="1058" r="1.20" fill="#b8e0c8" opacity="0.182"/><circle cx="1606" cy="234" r="0.90" fill="#b8e0c8" opacity="0.062"/><circle cx="517" cy="507" r="0.90" fill="#b8e0c8" opacity="0.103"/><circle cx="557" cy="829" r="0.40" fill="#b8e0c8" opacity="0.210"/><circle cx="393" cy="510" r="0.90" fill="#b8e0c8" opacity="0.180"/><circle cx="637" cy="742" r="0.60" fill="#b8e0c8" opacity="0.055"/></g>
</svg>
